<?xml version="1.0" encoding="iso-8859-1"?>
<!-- Generator: Adobe Illustrator 19.0.0, SVG Export Plug-In . SVG Version: 6.00 Build 0)  -->
<svg version="1.1" id="Capa_1" xmlns="http://www.w3.org/2000/svg" xmlns:xlink="http://www.w3.org/1999/xlink" x="0px" y="0px"
	 viewBox="0 0 512.001 512.001" style="enable-background:new 0 0 512.001 512.001;" xml:space="preserve">
<g>
	<g>
		<path d="M140.997,108.993c-8.401-11.4-21.9-17.998-35.999-17.998H15c-8.401,0-15,6.599-15,15v59.998c0,8.399,6.599,15,15,15
			h67.498l46.499,62.098l51.299-81.598L140.997,108.993z"/>
	</g>
</g>
<g>
	<g>
		<path d="M506.585,124.294c-0.3,0-0.3-0.3-0.601-0.3L385.988,33.997c-10.291-7.547-23.999,0.149-23.999,12.001v44.999h-76.998
			c-27.262,0-37.998,21.499-38.999,22.499c-72.163,114.527-123.963,196.41-136.796,217.493H15c-8.401,0-15,6.599-15,15v59.998
			c0,8.399,6.599,15,15,15h119.996c14.278,0,29.623-6.981,38.4-21.6c0.298-0.3,0.298-0.599,0.599-0.899
			c0.631-1.003,130.813-207.669,136.796-217.494h51.198v44.999c0,11.841,13.705,19.552,23.999,11.999l119.996-89.997
			c0.3,0,0.3-0.298,0.601-0.298C513.796,141.683,513.816,130.319,506.585,124.294z"/>
	</g>
</g>
<g>
	<g>
		<path d="M505.984,363.985l-119.095-89.096l-0.901-0.901c-10.291-7.547-23.999,0.149-23.999,12.001v44.999H307.49l-30.299-40.2
			l-51.297,81.598l23.098,30.598c8.401,11.4,21.9,18,35.999,18h76.998v44.999c0,12.411,14.513,19.38,23.999,11.999l119.996-89.997
			C513.985,382.448,514.002,369.538,505.984,363.985z"/>
	</g>
</g>
<g>
</g>
<g>
</g>
<g>
</g>
<g>
</g>
<g>
</g>
<g>
</g>
<g>
</g>
<g>
</g>
<g>
</g>
<g>
</g>
<g>
</g>
<g>
</g>
<g>
</g>
<g>
</g>
<g>
</g>
</svg>
